<?xml version="1.0" encoding="UTF-8"?><svg id="Layer_1" xmlns="http://www.w3.org/2000/svg" viewBox="0 0 1280 256"><path d="m97.49,30.15h0s36.25,62.79,36.25,62.79l119.88-46.77C246.11,19.53,221.65,0,192.62,0H63.38C28.38,0,0,28.38,0,63.38v51.92l81.35-46.97c-.15-17.88,5.16-31.85,16.14-38.18Z" style="fill:#fff; stroke-width:0px;"/><path d="m197.49,203.35h0c-10.98,6.34-25.73,3.95-41.14-5.12l-99.48,57.43c2.14.22,4.31.33,6.51.33h129.24c35,0,63.38-28.38,63.38-63.38v-127.94l-94.76,75.88,36.25,62.79Z" style="fill:#fff; stroke-width:0px;"/><text transform="translate(321.72 192.02)" style="fill:#fff; font-family:SegoeUIVariable-BoldSmall, &apos;Segoe UI Variable&apos;; font-size:167.35px; font-variation-settings:&apos;wght&apos; 700, &apos;opsz&apos; 8; font-weight:700;"><tspan x="0" y="0">Bulletinator</tspan></text></svg>