<?xml version="1.0" encoding="UTF-8"?><svg id="Layer_1" xmlns="http://www.w3.org/2000/svg" viewBox="0 0 1280 256"><text transform="translate(321.72 192.02)" style="fill:#fff; font-family:SegoeUIVariable-BoldSmall, &apos;Segoe UI Variable&apos;; font-size:167.35px; font-variation-settings:&apos;wght&apos; 700, &apos;opsz&apos; 8; font-weight:700;"><tspan x="0" y="0">Bulletinator</tspan></text><path d="m292.08,44.79c-.73-1.27-2.07-2-3.46-2-.49,0-.98.09-1.45.27l-145.58,56.8-34.13-59.12c-.6-1.03-1.62-1.75-2.8-1.94-.22-.04-.45-.06-.67-.06-.95,0-1.88.34-2.61.97-8.16,7.03-12.4,19.3-12.27,35.49L5.8,123.3c-1.13.65-1.87,1.81-1.98,3.11-.27,3.02-.42,6.05-.47,9.06l-.03-.05v60.41c0,30.27,23,55.17,52.47,58.18h23.17c.69,0,1.38-.18,2-.54l83.29-48.08c9.67,5.69,19.08,8.69,27.21,8.69,3.44,0,6.7-.53,9.68-1.58,1.12-.39,2.01-1.27,2.43-2.38s.31-2.36-.29-3.39l-34.13-59.12,121.98-97.68c1.54-1.23,1.95-3.41.96-5.12Z" style="fill:#fff; stroke-width:0px;"/></svg>