<?xml version="1.0" encoding="UTF-8"?><svg id="Layer_1" xmlns="http://www.w3.org/2000/svg" viewBox="0 0 512 512"><path d="m194.97,60.29h0s72.5,125.57,72.5,125.57l239.79-93.56C492.25,39.05,443.3,0,385.24,0H126.76C56.75,0,0,56.75,0,126.76v103.83l162.7-93.93c-.29-35.76,10.31-63.69,32.27-76.37Z" style="fill:#fff; stroke-width:0px;"/><path d="m394.97,406.7s0,0,0,0c-21.96,12.68-51.45,7.9-82.27-10.23l-198.96,114.87c4.28.44,8.63.66,13.02.66h258.47c70.01,0,126.76-56.75,126.76-126.76v-255.87l-189.53,151.77,72.5,125.57Z" style="fill:#fff; stroke-width:0px;"/></svg>